<svg xmlns="http://www.w3.org/2000/svg" width="165.368" height="41.115" viewBox="0 0 165.368 41.115">
    <defs>
        <style>
            .cls-2{fill:#fff}
        </style>
    </defs>
    <g id="Grupo_54" transform="translate(-28.531 -118.968)">
        <path id="Trazado_8" fill="#d8da00" d="M28.531 118.968V138.8a19.834 19.834 0 0 0 18.2 19.793v.048h21.48v-39.673zM62.808 132.1H42.936v6.626a6.612 6.612 0 0 0 6.617 6.62h13.255v6.626H48.463v-.03A13.266 13.266 0 0 1 36.3 138.731v-13.258h26.508z"/>
        <path id="Trazado_9" d="M177.077 159.567h-12.69v-.024a11.741 11.741 0 0 1-10.766-11.7v-11.736h23.456v5.864h-17.592v5.867a5.86 5.86 0 0 0 5.867 5.861h11.725z" class="cls-2" transform="translate(-77.704 -10.646)"/>
        <path id="Trazado_10" d="M241.395 159.569h-5.88l-1.087-2.926h-9.5l-1.1 2.926h-5.886l8.8-23.457h5.858zm-9.179-8.8l-2.547-6.781-2.51 6.781z" class="cls-2" transform="translate(-117.661 -10.65)"/>
        <path id="Trazado_11" d="M307.8 139.039a11.737 11.737 0 0 1-11.728 11.728h-5.867v8.8h-5.87v-23.46H307.8zm-6.656 2.932h-10.937v2.929h5.867a5.656 5.656 0 0 0 2.932-.786 6.037 6.037 0 0 0 2.14-2.146" class="cls-2" transform="translate(-158.903 -10.646)"/>
        <path id="Trazado_12" d="M363.454 159.569h-5.888l-1.08-2.926h-9.492l-1.108 2.926h-5.891l8.8-23.457h5.861zm-9.182-8.8l-2.546-6.781-2.507 6.781z" class="cls-2" transform="translate(-193.477 -10.65)"/>
        <path id="Trazado_13" d="M426.612 159.567h-12.691v-.024a11.747 11.747 0 0 1-10.763-11.7v-11.736h23.454v5.864h-17.587v5.867a5.855 5.855 0 0 0 5.864 5.861h11.722z" class="cls-2" transform="translate(-232.713 -10.646)"/>
        <path id="Trazado_14" d="M344.165 217.213a3.442 3.442 0 0 1-1 .625 2.859 2.859 0 0 1-1.036.179 2.045 2.045 0 0 1-1.4-.437 1.476 1.476 0 0 1-.488-1.142 1.534 1.534 0 0 1 .185-.749 1.58 1.58 0 0 1 .48-.538 2.549 2.549 0 0 1 .68-.3 5.946 5.946 0 0 1 .831-.145 8.975 8.975 0 0 0 1.672-.316v-.246a1.01 1.01 0 0 0-.267-.807 1.542 1.542 0 0 0-1.065-.325 1.688 1.688 0 0 0-.98.234 1.443 1.443 0 0 0-.462.819l-.919-.121a2.238 2.238 0 0 1 .416-.956 1.827 1.827 0 0 1 .826-.555 3.844 3.844 0 0 1 1.254-.2 3.44 3.44 0 0 1 1.153.167 1.627 1.627 0 0 1 .653.422 1.562 1.562 0 0 1 .291.641 5.049 5.049 0 0 1 .045.862v1.25a15.15 15.15 0 0 0 .055 1.654 2.231 2.231 0 0 0 .246.668h-.981a1.976 1.976 0 0 1-.191-.683m-.076-2.1a6.326 6.326 0 0 1-1.53.362 3.489 3.489 0 0 0-.813.185.821.821 0 0 0-.377.3.758.758 0 0 0-.127.452.769.769 0 0 0 .279.613 1.185 1.185 0 0 0 .831.259 1.836 1.836 0 0 0 .962-.243 1.439 1.439 0 0 0 .625-.643 2.4 2.4 0 0 0 .149-.938z" class="cls-2" transform="translate(-193.63 -57.934)"/>
        <path id="Trazado_15" d="M355.753 216.239l.926-.146a1.336 1.336 0 0 0 .434.859 1.542 1.542 0 0 0 1 .3 1.419 1.419 0 0 0 .959-.27.776.776 0 0 0 .313-.613.565.565 0 0 0-.273-.495 3.807 3.807 0 0 0-.965-.328 7.588 7.588 0 0 1-1.427-.446 1.365 1.365 0 0 1-.6-.519 1.432 1.432 0 0 1-.206-.747 1.411 1.411 0 0 1 .17-.689 1.511 1.511 0 0 1 .461-.519 1.9 1.9 0 0 1 .6-.279 3.254 3.254 0 0 1 1.957.082 1.6 1.6 0 0 1 .729.507 2.066 2.066 0 0 1 .322.853l-.917.127a1.024 1.024 0 0 0-.367-.664 1.321 1.321 0 0 0-.847-.24 1.55 1.55 0 0 0-.923.213.613.613 0 0 0-.276.5.5.5 0 0 0 .122.322.766.766 0 0 0 .355.249c.094.036.371.122.826.243a11.268 11.268 0 0 1 1.39.431 1.487 1.487 0 0 1 .616.5 1.339 1.339 0 0 1 .228.8 1.584 1.584 0 0 1-.28.88 1.76 1.76 0 0 1-.783.643 2.968 2.968 0 0 1-1.171.222 2.585 2.585 0 0 1-1.639-.446 2.047 2.047 0 0 1-.722-1.332" class="cls-2" transform="translate(-203.266 -57.934)"/>
        <path id="Trazado_16" d="M369.894 215.123a2.851 2.851 0 0 1 .856-2.273 2.591 2.591 0 0 1 1.739-.619 2.506 2.506 0 0 1 1.869.75 2.858 2.858 0 0 1 .726 2.067 3.513 3.513 0 0 1-.328 1.675 2.235 2.235 0 0 1-.929.956 2.735 2.735 0 0 1-1.339.337 2.48 2.48 0 0 1-1.875-.744 2.979 2.979 0 0 1-.719-2.149m.971 0a2.377 2.377 0 0 0 .461 1.6 1.534 1.534 0 0 0 2.322-.006 2.374 2.374 0 0 0 .467-1.624 2.277 2.277 0 0 0-.467-1.551 1.54 1.54 0 0 0-2.322-.006 2.363 2.363 0 0 0-.461 1.59" class="cls-2" transform="translate(-212.05 -57.933)"/>
        <path id="Trazado_17" d="M389.628 215.871l.923.122a2.382 2.382 0 0 1-.774 1.487 2.253 2.253 0 0 1-1.527.537 2.365 2.365 0 0 1-1.827-.743 2.992 2.992 0 0 1-.692-2.125 3.963 3.963 0 0 1 .295-1.569 2.107 2.107 0 0 1 .9-1.008 2.689 2.689 0 0 1 1.327-.34 2.351 2.351 0 0 1 1.478.461 2.088 2.088 0 0 1 .731 1.3l-.917.143a1.547 1.547 0 0 0-.455-.853 1.242 1.242 0 0 0-.8-.27 1.435 1.435 0 0 0-1.154.507 3.223 3.223 0 0 0-.009 3.226 1.383 1.383 0 0 0 1.111.507 1.328 1.328 0 0 0 .922-.343 1.661 1.661 0 0 0 .468-1.035" class="cls-2" transform="translate(-221.887 -57.934)"/>
        <path id="Trazado_18" d="M400.583 207.006h.941v1.084h-.941zm0 2.1h.941v5.539h-.941z" class="cls-2" transform="translate(-231.113 -54.688)"/>
        <path id="Trazado_19" d="M409.919 217.213a3.543 3.543 0 0 1-1 .625 2.919 2.919 0 0 1-1.038.179 2.052 2.052 0 0 1-1.4-.437 1.487 1.487 0 0 1-.489-1.142 1.562 1.562 0 0 1 .182-.749 1.583 1.583 0 0 1 .483-.538 2.529 2.529 0 0 1 .683-.3 5.781 5.781 0 0 1 .831-.145 8.878 8.878 0 0 0 1.672-.316c0-.143.006-.213.006-.246a1.02 1.02 0 0 0-.267-.807 1.554 1.554 0 0 0-1.068-.325 1.683 1.683 0 0 0-.981.234 1.389 1.389 0 0 0-.458.819l-.926-.121a2.31 2.31 0 0 1 .416-.956 1.816 1.816 0 0 1 .822-.555 3.878 3.878 0 0 1 1.257-.2 3.451 3.451 0 0 1 1.157.167 1.557 1.557 0 0 1 .646.422 1.454 1.454 0 0 1 .292.641 4.551 4.551 0 0 1 .055.862v1.25a15.524 15.524 0 0 0 .052 1.654 2.419 2.419 0 0 0 .24.668h-.974a1.984 1.984 0 0 1-.191-.683m-.076-2.1a6.469 6.469 0 0 1-1.536.362 3.661 3.661 0 0 0-.814.185.82.82 0 0 0-.371.3.822.822 0 0 0 .152 1.065 1.2 1.2 0 0 0 .835.259 1.815 1.815 0 0 0 .956-.243 1.391 1.391 0 0 0 .625-.643 2.281 2.281 0 0 0 .152-.938z" class="cls-2" transform="translate(-234.473 -57.934)"/>
        <path id="Trazado_20" d="M425.526 214.655v-.7a1.741 1.741 0 0 1-1.548.819 2.218 2.218 0 0 1-1.221-.361 2.471 2.471 0 0 1-.862-1.023 3.606 3.606 0 0 1-.3-1.5 3.9 3.9 0 0 1 .279-1.5 2.188 2.188 0 0 1 .826-1.035 2.232 2.232 0 0 1 1.238-.364 1.87 1.87 0 0 1 1.53.765v-2.741h.932v7.64zm-2.966-2.765a2.419 2.419 0 0 0 .443 1.59 1.333 1.333 0 0 0 2.107.025 2.3 2.3 0 0 0 .428-1.533 2.608 2.608 0 0 0-.437-1.672 1.34 1.34 0 0 0-1.084-.531 1.287 1.287 0 0 0-1.032.516 2.462 2.462 0 0 0-.425 1.606" class="cls-2" transform="translate(-244.164 -54.694)"/>
        <path id="Trazado_21" d="M437.242 215.123a2.856 2.856 0 0 1 .85-2.273 2.583 2.583 0 0 1 1.745-.619 2.473 2.473 0 0 1 1.861.75 2.848 2.848 0 0 1 .729 2.067 3.632 3.632 0 0 1-.322 1.675 2.28 2.28 0 0 1-.932.956 2.708 2.708 0 0 1-1.336.337 2.482 2.482 0 0 1-1.882-.744 2.978 2.978 0 0 1-.713-2.149m.959 0a2.375 2.375 0 0 0 .467 1.6 1.541 1.541 0 0 0 2.328-.006 2.426 2.426 0 0 0 .464-1.624 2.328 2.328 0 0 0-.464-1.551 1.547 1.547 0 0 0-2.328-.006 2.362 2.362 0 0 0-.467 1.59" class="cls-2" transform="translate(-253.885 -57.933)"/>
        <path id="Trazado_22" d="M452.834 216.239l.929-.146a1.282 1.282 0 0 0 .431.859 1.539 1.539 0 0 0 1 .3 1.423 1.423 0 0 0 .962-.27.764.764 0 0 0 .31-.613.553.553 0 0 0-.273-.495 3.687 3.687 0 0 0-.956-.328 7.64 7.64 0 0 1-1.43-.446 1.406 1.406 0 0 1-.607-.519 1.43 1.43 0 0 1-.2-.747 1.448 1.448 0 0 1 .167-.689 1.521 1.521 0 0 1 .464-.519 1.869 1.869 0 0 1 .595-.279 3.245 3.245 0 0 1 1.955.082 1.515 1.515 0 0 1 .722.507 1.805 1.805 0 0 1 .322.853l-.911.127a1 1 0 0 0-.367-.664 1.313 1.313 0 0 0-.847-.24 1.52 1.52 0 0 0-.917.213.6.6 0 0 0-.273.5.5.5 0 0 0 .112.322.76.76 0 0 0 .358.249c.094.036.367.122.825.243a10.811 10.811 0 0 1 1.387.431 1.459 1.459 0 0 1 .619.5 1.341 1.341 0 0 1 .228.8 1.629 1.629 0 0 1-.276.88 1.8 1.8 0 0 1-.789.643 2.957 2.957 0 0 1-1.169.222 2.594 2.594 0 0 1-1.642-.446 2.074 2.074 0 0 1-.722-1.332" class="cls-2" transform="translate(-263.571 -57.934)"/>
    </g>
</svg>
